<svg width="205" height="205" viewBox="0 0 205 205" fill="none" xmlns="http://www.w3.org/2000/svg">
<rect width="204.8" height="204.8" fill="#333C4D"/>
<path d="M104.578 46.6742L91.7386 68.9449H80.6428H49.4956C43.393 68.9449 38.3999 73.9379 38.3999 80.0406C38.3999 86.1432 43.393 91.1363 49.4956 91.1363H80.6428C86.7455 91.1363 91.7386 96.1293 91.7386 102.232C91.7386 108.335 86.7455 113.328 80.6428 113.328H49.4956C43.393 113.328 38.3999 118.321 38.3999 124.423C38.3999 130.526 43.393 135.519 49.4956 135.519H80.6428H91.7386V145.426C91.7386 152.163 97.2072 157.631 103.944 157.631C110.681 157.631 116.149 152.163 116.149 145.426V58.8795C116.149 52.3013 111.077 46.9912 104.578 46.6742Z" fill="white"/>
<path d="M93.4029 139.561L143.571 52.6977C146.979 46.8328 154.429 44.8514 160.294 48.2594C166.159 51.6673 168.14 59.1173 164.732 64.9822L114.564 151.766C111.156 157.631 103.706 159.613 97.8412 156.205C91.9763 152.876 89.995 145.426 93.4029 139.561Z" fill="url(#paint0_linear)"/>
<defs>
<linearGradient id="paint0_linear" x1="91.7414" y1="102.253" x2="166.344" y2="102.253" gradientUnits="userSpaceOnUse">
<stop stop-color="#C7FE3F"/>
<stop offset="1" stop-color="#7FFFE8"/>
</linearGradient>
</defs>
</svg>
